<?xml version="1.0" encoding="utf-8"?>
<!-- Generator: Adobe Illustrator 17.1.0, SVG Export Plug-In . SVG Version: 6.00 Build 0)  -->
<!DOCTYPE svg PUBLIC "-//W3C//DTD SVG 1.1//EN" "http://www.w3.org/Graphics/SVG/1.1/DTD/svg11.dtd">
<svg version="1.1" id="Layer_1" xmlns="http://www.w3.org/2000/svg" xmlns:xlink="http://www.w3.org/1999/xlink" x="0px" y="0px"
	 viewBox="0 407 639.1 413.5" enable-background="new 0 407 639.1 413.5" xml:space="preserve">
<g>
	<path fill-rule="evenodd" clip-rule="evenodd" d="M631.5,786.7H375.9c0,4.2-3.4,7.5-7.5,7.5h-97.7c-4.2,0-7.5-3.4-7.5-7.5H7.5
		c-4.2,0-7.5,3.4-7.5,7.5V813c0,4.2,3.4,7.5,7.5,7.5h624c4.2,0,7.5-3.4,7.5-7.5v-18.8C639.1,790.1,635.7,786.7,631.5,786.7z
		 M601.5,425.8c0-10.4-8.4-18.8-18.8-18.8H56.4c-10.4,0-18.8,8.4-18.8,18.8V783h563.9V425.8z M319.5,414.6c2.1,0,3.8,1.7,3.8,3.8
		c0,2.1-1.7,3.8-3.8,3.8c-2.1,0-3.8-1.7-3.8-3.8C315.8,416.2,317.5,414.6,319.5,414.6z M582.7,752.9c0,8.3-6.7,15-15,15H71.4
		c-8.3,0-15-6.7-15-15V448.4c0-8.3,6.7-15,15-15h496.2c8.3,0,15,6.7,15,15V752.9z"/>
</g>
</svg>
