<?xml version="1.0" encoding="utf-8"?>
<!-- Generator: Adobe Illustrator 17.1.0, SVG Export Plug-In . SVG Version: 6.00 Build 0)  -->
<!DOCTYPE svg PUBLIC "-//W3C//DTD SVG 1.1//EN" "http://www.w3.org/Graphics/SVG/1.1/DTD/svg11.dtd">
<svg version="1.1" id="Layer_1" xmlns="http://www.w3.org/2000/svg" xmlns:xlink="http://www.w3.org/1999/xlink" x="0px" y="0px"
	 viewBox="1.6 326.4 637 484.1" enable-background="new 1.6 326.4 637 484.1" xml:space="preserve">
<g>
	<path fill-rule="evenodd" clip-rule="evenodd" d="M434.8,793.6H328.6v-25.5h-17v25.5H205.5c-7,0-12.7,5.7-12.7,12.7v4.2h254.8v-4.2
		C447.5,799.3,441.8,793.6,434.8,793.6z M625.9,326.4H14.4c-7,0-12.7,5.7-12.7,12.7v411.9c0,7,5.7,12.7,12.7,12.7h611.5
		c7,0,12.7-5.7,12.7-12.7V339.2C638.6,332.1,632.9,326.4,625.9,326.4z M579.2,751.1c-2.3,0-4.2-1.9-4.2-4.2c0-2.3,1.9-4.2,4.2-4.2
		c2.3,0,4.2,1.9,4.2,4.2C583.4,749.2,581.5,751.1,579.2,751.1z M596.1,751.1c-2.3,0-4.2-1.9-4.2-4.2c0-2.3,1.9-4.2,4.2-4.2
		c2.3,0,4.2,1.9,4.2,4.2C600.4,749.2,598.5,751.1,596.1,751.1z M617.4,721.4c0,4.7-3.8,8.5-8.5,8.5H31.3c-4.7,0-8.5-3.8-8.5-8.5
		V356.2c0-4.7,3.8-8.5,8.5-8.5h577.5c4.7,0,8.5,3.8,8.5,8.5V721.4z"/>
</g>
</svg>
