<?xml version="1.0" encoding="utf-8"?>
<!-- Generator: Adobe Illustrator 17.1.0, SVG Export Plug-In . SVG Version: 6.00 Build 0)  -->
<!DOCTYPE svg PUBLIC "-//W3C//DTD SVG 1.1//EN" "http://www.w3.org/Graphics/SVG/1.1/DTD/svg11.dtd">
<svg version="1.1" id="Layer_1" xmlns="http://www.w3.org/2000/svg" xmlns:xlink="http://www.w3.org/1999/xlink" x="0px" y="0px"
	 viewBox="1.7 349.2 637.9 438" enable-background="new 1.7 349.2 637.9 438" xml:space="preserve">
<g>
	<path fill-rule="evenodd" clip-rule="evenodd" d="M626.9,349.2H14.5c-7,0-12.8,5.7-12.8,12.8v412.5c0,7,5.7,12.8,12.8,12.8h612.4
		c7,0,12.8-5.7,12.8-12.8V362C639.7,354.9,633.9,349.2,626.9,349.2z M61.3,362c2.3,0,4.3,1.9,4.3,4.3c0,2.4-1.9,4.3-4.3,4.3
		c-2.4,0-4.3-1.9-4.3-4.3C57,363.9,58.9,362,61.3,362z M44.3,362c2.4,0,4.3,1.9,4.3,4.3c0,2.4-1.9,4.3-4.3,4.3
		c-2.3,0-4.3-1.9-4.3-4.3C40,363.9,41.9,362,44.3,362z M27.3,362c2.3,0,4.3,1.9,4.3,4.3c0,2.4-1.9,4.3-4.3,4.3
		c-2.4,0-4.3-1.9-4.3-4.3C23,363.9,24.9,362,27.3,362z M618.4,757.5c0,4.7-3.8,8.5-8.5,8.5H31.5c-4.7,0-8.5-3.8-8.5-8.5V391.7
		c0-4.7,3.8-8.5,8.5-8.5h578.4c4.7,0,8.5,3.8,8.5,8.5V757.5z"/>
</g>
</svg>
